# xmcd
#
# Track frame offsets:
#	150
#	14956
#	28755
#	45127
#	62958
#	80074
#	94831
#	114041
#	133218
#	152027
#	167977
#	189160
#	200959
#	215679
#	225429
#	245135
#	263838
#	275304
#	295780
#
# Disc length: 4210 seconds
#
# Revision: 1
# Processed by: cddbd v1.5.2PL0 Copyright (c) Steve Scherf et al.
# Submitted via: audiograbber 1.80
#
DISCID=19107013
DTITLE=TUNING TRAXX 5 - MIX
DYEAR=1900
DGENRE=
TTITLE0=MASKINEN - ALLA SOM INTE DANSAR (TT EXCLUSIVE REMIX)
TTITLE1=JULIAN - PARADISE (SUPER NICE)
TTITLE2=LAST SEQUENCE feat. STELLA - HAPPY TONIGHT
TTITLE3=KLM MUSIC feat WHIGFIELD - SATURDAY NIGHT (BASS IN YOUR FACE REMIX)
TTITLE4=LIZ KAY - TRUE FAITH
TTITLE5=CASCADA - TRULY MADLY DEEPLY
TTITLE6=THE REAL BOOTY BABES - PLAYED-A-LIVE (INSTRUMENTAL CLUB MIX)
TTITLE7=ALEX MEGANE - SOMETHING
TTITLE8=SASJA - SAY IT'S NOT TOO LATE (BASS IN YOUR FACE REMIX)
TTITLE9=MANIAN - HOLD ME TONIGHT
TTITLE10=JAN WAYNE and SCARLET - WISH YOU WERE HERE
TTITLE11=BASSHUNTER - PLEASE DON'T GO
TTITLE12=VERANO - RHYTHM OF THE NIGHT (DE-GREES REMIX EDIT)
TTITLE13=DANNY KLARK - THE ACTOR (BASS IN YOUR FACE REMIX)
TTITLE14=DE-GREES vs THE REAL BOOTY BABES - APOLOGIZE (TI-MO vs STEFAN RIO RADI
TTITLE14=O EDIT)
TTITLE15=DAN WINTER - GET THIS PARTY STARTED
TTITLE16=BLACK HAWK - HTTP://TT5_EXCLUSIVE_MASTER.MP3
TTITLE17=CAPTAIN HOLLYWOOD - MORE and MORE (RECALL) (SCOTTY vs FULL GRAINER RADIO
TTITLE17=EDIT)
TTITLE18=HAMPENBERG - LOVE IN SIBIRIA (ROCCO and BASS-T REMIX)
EXTD=
EXTT0=
EXTT1=
EXTT2=
EXTT3=
EXTT4=
EXTT5=
EXTT6=
EXTT7=
EXTT8=
EXTT9=
EXTT10=
EXTT11=
EXTT12=
EXTT13=
EXTT14=
EXTT15=
EXTT16=
EXTT17=
EXTT18=
PLAYORDER=
